<?xml version="1.0" encoding="iso-8859-1"?>
<!-- Generator: Adobe Illustrator 19.0.0, SVG Export Plug-In . SVG Version: 6.00 Build 0)  -->
<svg xmlns="http://www.w3.org/2000/svg" xmlns:xlink="http://www.w3.org/1999/xlink" version="1.1" id="Capa_1" x="0px" y="0px" viewBox="0 0 480 480" style="enable-background:new 0 0 480 480;" xml:space="preserve" width="512px" height="512px">
<g>
	<g>
		<path d="M384,216h-32V48c0-4.418-3.582-8-8-8h-64c-4.418,0-8,3.582-8,8v168h-32c-35.33,0.04-63.96,28.67-64,64    c0,4.418,3.582,8,8,8h3.952l-59.328,140.896c-1.714,4.072,0.197,8.763,4.269,10.477c0.983,0.414,2.04,0.627,3.107,0.627h256    c3.784,0.002,7.052-2.649,7.832-6.352L430.488,288H440c4.418,0,8-3.582,8-8C447.96,244.67,419.33,216.04,384,216z M288,56h48v160    h-48V56z M385.504,424h-30.4l20.488-61.472c1.396-4.197-0.875-8.732-5.072-10.128c-4.197-1.396-8.732,0.875-10.128,5.072    L338.24,424h-23.144l20.488-61.472c1.396-4.197-0.875-8.732-5.072-10.128c-4.197-1.396-8.732,0.875-10.128,5.072L298.24,424    h-23.144l20.488-61.472c1.396-4.197-0.875-8.732-5.072-10.128c-4.197-1.396-8.732,0.875-10.128,5.072L258.24,424h-23.144    l20.488-61.472c1.396-4.197-0.875-8.732-5.072-10.128c-4.197-1.396-8.732,0.875-10.128,5.072L218.24,424h-23.144l20.488-61.472    c1.396-4.197-0.875-8.732-5.072-10.128c-4.197-1.396-8.732,0.875-10.128,5.072L178.24,424h-30.192l57.264-136h208.8L385.504,424z     M192.664,272c3.935-23.08,23.923-39.971,47.336-40h144c23.413,0.029,43.401,16.92,47.336,40H192.664z" fill="#fafaf6" />
	</g>
</g>
<g>
	<g>
		<path d="M104,424H8c-4.418,0-8,3.582-8,8s3.582,8,8,8h96c4.418,0,8-3.582,8-8S108.418,424,104,424z" fill="#fafaf6"/>
	</g>
</g>
<g>
	<g>
		<path d="M104,376H40c-4.418,0-8,3.582-8,8s3.582,8,8,8h64c4.418,0,8-3.582,8-8S108.418,376,104,376z" fill="#fafaf6"/>
	</g>
</g>
<g>
	<!-- <g>
		<path d="M472,160c-13.255,0-24-10.745-24-24c0-4.418-3.582-8-8-8s-8,3.582-8,8c0,13.255-10.745,24-24,24c-4.418,0-8,3.582-8,8    s3.582,8,8,8c13.255,0,24,10.745,24,24c0,4.418,3.582,8,8,8s8-3.582,8-8c0-13.255,10.745-24,24-24c4.418,0,8-3.582,8-8    S476.418,160,472,160z M440,176c-2.276-3.031-4.969-5.724-8-8c3.031-2.276,5.724-4.969,8-8c2.276,3.031,4.969,5.724,8,8    C444.969,170.276,442.276,172.969,440,176z" fill="#fafaf6"/>
	</g> -->
</g>
<g>
</g>
<g>
</g>
<g>
</g>
<g>
</g>
<g>
</g>
<g>
</g>
<g>
</g>
<g>
</g>
<g>
</g>
<g>
</g>
<g>
</g>
<g>
</g>
<g>
</g>
<g>
</g>
<g>
</g>
</svg>
