<svg xmlns="http://www.w3.org/2000/svg" data-name="pa" viewBox="0 0 50 62.5" x="0px" y="0px"><title>icone-gesturesespanse</title><path d="M33.548,30.941c1.386-1.189,1.164-5.261.987-8.532-.048-.87-.093-1.708-.109-2.467a1.182,1.182,0,0,0-2.34.023v1.922a.6.6,0,0,1-.6.6h0a.6.6,0,0,1-.6-.6l0-.89-.062-2.334a1.211,1.211,0,0,0-1.325-.981c-.718,0-1.325.459-1.325,1l0,2.477a.6.6,0,0,1-1.2-.073l-.022-3.22a1.264,1.264,0,0,0-1.325-1.143,1.3,1.3,0,0,0-1.3.943l.013,2.789-.04.479a.576.576,0,0,1-.625.546.6.6,0,0,1-.572-.6V17.9a2.226,2.226,0,0,1,.026-.344l-.049-9.937A1.36,1.36,0,0,0,21.752,6.24a1.377,1.377,0,0,0-1.326,1.42V18.717a6.747,6.747,0,0,1-.777,3.031,2.841,2.841,0,0,0-.324,1.276,7.025,7.025,0,0,0,.483,2.628.6.6,0,0,1-1.094.494,8.214,8.214,0,0,1-.589-3.122,4.029,4.029,0,0,1,.451-1.815,6.4,6.4,0,0,0,.494-1.3h-.522a1.2,1.2,0,0,0-.47.1,3.563,3.563,0,0,0-1.623,1.545,7.061,7.061,0,0,0-.236,6.09c.68,1.644,2.829,3.6,4.113,4.763,1,.911,1.212,1.1,1.212,1.472v2.222H31.793C31.729,34.89,31.834,32.412,33.548,30.941Z" fill="none"/><path d="M34.329,31.852c1.834-1.574,1.605-5.789,1.4-9.507-.047-.857-.092-1.683-.108-2.429a2.287,2.287,0,0,0-2.369-2.175,2.468,2.468,0,0,0-1.317.376A2.471,2.471,0,0,0,29.5,16.486a2.756,2.756,0,0,0-1.552.466,2.515,2.515,0,0,0-2.32-1.423,2.637,2.637,0,0,0-1.309.343L24.277,7.6a2.526,2.526,0,1,0-5.05.057V18.706h-.7a2.4,2.4,0,0,0-.964.212,4.755,4.755,0,0,0-2.167,2.06,8.259,8.259,0,0,0-.291,7.12c.783,1.893,3.058,3.958,4.416,5.192.313.284.661.6.819.766v2.039H19.061a.6.6,0,0,0-.6.6v7.979a.6.6,0,1,0,1.2,0v-7.38H34.186v7.38a.6.6,0,1,0,1.2,0V36.694a.6.6,0,0,0-.6-.6H33C32.941,35.127,32.986,33,34.329,31.852ZM21.544,36.095V33.873c0-.37-.208-.561-1.212-1.472-1.284-1.166-3.434-3.119-4.113-4.763a7.061,7.061,0,0,1,.236-6.09A3.563,3.563,0,0,1,18.079,20a1.2,1.2,0,0,1,.47-.1h.522a6.4,6.4,0,0,1-.494,1.3,4.029,4.029,0,0,0-.451,1.815,8.214,8.214,0,0,0,.589,3.122.6.6,0,0,0,1.094-.494,7.025,7.025,0,0,1-.483-2.628,2.841,2.841,0,0,1,.324-1.276,6.747,6.747,0,0,0,.777-3.031V7.66a1.377,1.377,0,0,1,1.326-1.42,1.36,1.36,0,0,1,1.325,1.378l.049,9.937a2.226,2.226,0,0,0-.026.344v2.987a.6.6,0,0,0,.572.6.576.576,0,0,0,.625-.546l.04-.479-.013-2.789a1.3,1.3,0,0,1,1.3-.943,1.264,1.264,0,0,1,1.325,1.143l.022,3.22a.6.6,0,0,0,1.2.073l0-2.477c0-.543.607-1,1.325-1a1.211,1.211,0,0,1,1.325.981L30.883,21l0,.89a.6.6,0,0,0,.6.6h0a.6.6,0,0,0,.6-.6V19.966a1.182,1.182,0,0,1,2.34-.023c.017.759.062,1.6.109,2.467.177,3.271.4,7.343-.987,8.532-1.715,1.471-1.819,3.949-1.755,5.153Z"/></svg>