<svg xmlns="http://www.w3.org/2000/svg" data-name="pa" viewBox="0 0 50 62.5" x="0px" y="0px"><title>icone-gesturesespanse</title><path d="M33.548,30.941c1.386-1.189,1.164-5.261.987-8.532-.048-.87-.093-1.708-.109-2.467a1.182,1.182,0,0,0-2.34.023v1.922a.6.6,0,0,1-.6.6h0a.6.6,0,0,1-.6-.6l0-.89-.062-2.334a1.211,1.211,0,0,0-1.325-.981c-.718,0-1.325.459-1.325,1l0,2.477a.6.6,0,0,1-1.2-.073l-.022-3.22L28.57,5.927a1.183,1.183,0,0,0-1.047-1.335,1.2,1.2,0,0,0-1.295,1.027L24.5,19.563a.6.6,0,0,1-.6.525h-.708a.6.6,0,0,1-.583-.459L19.829,8.124a1.358,1.358,0,0,0-1.587-1.083,1.376,1.376,0,0,0-1,1.665l2.31,10.813a5.269,5.269,0,0,1-.1,2.7,2.638,2.638,0,0,0-.131.807,7.025,7.025,0,0,0,.483,2.628.6.6,0,0,1-1.094.494,8.214,8.214,0,0,1-.589-3.122,3.837,3.837,0,0,1,.188-1.173,4.009,4.009,0,0,0,.094-1.908,1.723,1.723,0,0,0-.333.063,3.562,3.562,0,0,0-1.618,1.543,7.061,7.061,0,0,0-.236,6.09c.68,1.644,2.829,3.6,4.113,4.763,1,.911,1.212,1.1,1.212,1.472v2.222H31.793C31.729,34.89,31.834,32.412,33.548,30.941Z" fill="none"/><path d="M34.329,31.852c1.834-1.574,1.605-5.789,1.4-9.507-.047-.857-.092-1.683-.108-2.429a2.287,2.287,0,0,0-2.369-2.175,2.468,2.468,0,0,0-1.317.376A2.471,2.471,0,0,0,29.5,16.486a2.812,2.812,0,0,0-1.19.26L29.759,6.089A2.382,2.382,0,0,0,27.648,3.4,2.4,2.4,0,0,0,25.037,5.47L23.47,18.084,21,7.847a2.526,2.526,0,1,0-4.926,1.11l2.1,9.811a2.241,2.241,0,0,0-.6.15,4.755,4.755,0,0,0-2.167,2.06,8.259,8.259,0,0,0-.291,7.12c.783,1.893,3.058,3.958,4.416,5.192.313.284.661.6.819.766v2.039H19.061a.6.6,0,0,0-.6.6v7.979a.6.6,0,1,0,1.2,0v-7.38H34.186v7.38a.6.6,0,1,0,1.2,0V36.694a.6.6,0,0,0-.6-.6H33C32.941,35.127,32.986,33,34.329,31.852ZM21.544,36.095V33.873c0-.37-.208-.561-1.212-1.472-1.284-1.166-3.434-3.119-4.113-4.763a7.061,7.061,0,0,1,.236-6.09,3.562,3.562,0,0,1,1.618-1.543,1.723,1.723,0,0,1,.333-.062,4.009,4.009,0,0,1-.094,1.908,3.837,3.837,0,0,0-.187,1.173,8.214,8.214,0,0,0,.589,3.122.6.6,0,0,0,1.094-.494,7.025,7.025,0,0,1-.483-2.628,2.638,2.638,0,0,1,.131-.807,5.269,5.269,0,0,0,.1-2.7L17.245,8.706a1.376,1.376,0,0,1,1-1.665,1.358,1.358,0,0,1,1.587,1.083L22.609,19.63a.6.6,0,0,0,.583.459H23.9a.6.6,0,0,0,.6-.525L26.228,5.619a1.2,1.2,0,0,1,1.295-1.027A1.183,1.183,0,0,1,28.57,5.927L26.95,17.871l.022,3.22a.6.6,0,0,0,1.2.073l0-2.477c0-.543.607-1,1.325-1a1.211,1.211,0,0,1,1.325.981L30.883,21l0,.89a.6.6,0,0,0,.6.6h0a.6.6,0,0,0,.6-.6V19.966a1.182,1.182,0,0,1,2.34-.023c.017.759.062,1.6.109,2.467.177,3.271.4,7.343-.987,8.532-1.715,1.471-1.819,3.949-1.755,5.153Z"/></svg>